<svg xmlns="http://www.w3.org/2000/svg" xmlns:xlink="http://www.w3.org/1999/xlink" contentStyleType="text/css" data-diagram-type="CLASS" height="756px" preserveAspectRatio="none" style="width:1244px;height:756px;background:#FFFFFF;" version="1.1" viewBox="0 0 1244 756" width="1244px" zoomAndPan="magnify"><title>Juego Scrabble - Clases Principales</title><defs/><g><g class="title" data-source-line="3"><text fill="#000000" font-family="Verdana" font-size="22" font-weight="bold" lengthAdjust="spacing" textLength="434.4893" x="400.2554" y="35.4209">Juego Scrabble - Clases Principales</text></g><!--cluster Modelo--><g class="cluster" data-entity="Modelo" data-source-line="6" data-uid="ent0002" id="cluster_Modelo"><path d="M629.5,446.6094 L687.9834,446.6094 A3.75,3.75 0 0 1 690.4834,449.1094 L697.4834,468.9063 L1234.5,468.9063 A2.5,2.5 0 0 1 1237,471.4063 L1237,747.1094 A2.5,2.5 0 0 1 1234.5,749.6094 L629.5,749.6094 A2.5,2.5 0 0 1 627,747.1094 L627,449.1094 A2.5,2.5 0 0 1 629.5,446.6094" fill="#FFFFFF" style="stroke:#000000;stroke-width:1;"/><line style="stroke:#000000;stroke-width:1;" x1="627" x2="697.4834" y1="468.9063" y2="468.9063"/><text fill="#000000" font-family="Verdana" font-size="14" font-weight="bold" lengthAdjust="spacing" textLength="57.4834" x="631" y="461.6045">Modelo</text></g><!--cluster Vista--><g class="cluster" data-entity="Vista" data-source-line="19" data-uid="ent0012" id="cluster_Vista"><path d="M13.5,200.6094 L54.6064,200.6094 A3.75,3.75 0 0 1 57.1064,203.1094 L64.1064,222.9063 L513.5,222.9063 A2.5,2.5 0 0 1 516,225.4063 L516,404.1094 A2.5,2.5 0 0 1 513.5,406.6094 L13.5,406.6094 A2.5,2.5 0 0 1 11,404.1094 L11,203.1094 A2.5,2.5 0 0 1 13.5,200.6094" fill="#FFFFFF" style="stroke:#000000;stroke-width:1;"/><line style="stroke:#000000;stroke-width:1;" x1="11" x2="64.1064" y1="222.9063" y2="222.9063"/><text fill="#000000" font-family="Verdana" font-size="14" font-weight="bold" lengthAdjust="spacing" textLength="40.1064" x="15" y="215.6045">Vista</text></g><!--cluster Controlador--><g class="cluster" data-entity="Controlador" data-source-line="28" data-uid="ent0018" id="cluster_Controlador"><path d="M682.5,303.6094 L777.3643,303.6094 A3.75,3.75 0 0 1 779.8643,306.1094 L786.8643,325.9063 L855.5,325.9063 A2.5,2.5 0 0 1 858,328.4063 L858,412.1094 A2.5,2.5 0 0 1 855.5,414.6094 L682.5,414.6094 A2.5,2.5 0 0 1 680,412.1094 L680,306.1094 A2.5,2.5 0 0 1 682.5,303.6094" fill="#FFFFFF" style="stroke:#000000;stroke-width:1;"/><line style="stroke:#000000;stroke-width:1;" x1="680" x2="786.8643" y1="325.9063" y2="325.9063"/><text fill="#000000" font-family="Verdana" font-size="14" font-weight="bold" lengthAdjust="spacing" textLength="93.8643" x="684" y="318.6045">Controlador</text></g><!--cluster Utilidades--><g class="cluster" data-entity="Utilidades" data-source-line="33" data-uid="ent0020" id="cluster_Utilidades"><path d="M128.5,446.6094 L209.2754,446.6094 A3.75,3.75 0 0 1 211.7754,449.1094 L218.7754,468.9063 L563.5,468.9063 A2.5,2.5 0 0 1 566,471.4063 L566,539.1094 A2.5,2.5 0 0 1 563.5,541.6094 L128.5,541.6094 A2.5,2.5 0 0 1 126,539.1094 L126,449.1094 A2.5,2.5 0 0 1 128.5,446.6094" fill="#FFFFFF" style="stroke:#000000;stroke-width:1;"/><line style="stroke:#000000;stroke-width:1;" x1="126" x2="218.7754" y1="468.9063" y2="468.9063"/><text fill="#000000" font-family="Verdana" font-size="14" font-weight="bold" lengthAdjust="spacing" textLength="79.7754" x="130" y="461.6045">Utilidades</text></g><!--cluster Aplicaciones--><g class="cluster" data-entity="Aplicaciones" data-source-line="40" data-uid="ent0024" id="cluster_Aplicaciones"><path d="M608.5,57.6094 L708.2109,57.6094 A3.75,3.75 0 0 1 710.7109,60.1094 L717.7109,79.9063 L1149.5,79.9063 A2.5,2.5 0 0 1 1152,82.4063 L1152,166.1094 A2.5,2.5 0 0 1 1149.5,168.6094 L608.5,168.6094 A2.5,2.5 0 0 1 606,166.1094 L606,60.1094 A2.5,2.5 0 0 1 608.5,57.6094" fill="#FFFFFF" style="stroke:#000000;stroke-width:1;"/><line style="stroke:#000000;stroke-width:1;" x1="606" x2="717.7109" y1="79.9063" y2="79.9063"/><text fill="#000000" font-family="Verdana" font-size="14" font-weight="bold" lengthAdjust="spacing" textLength="98.7109" x="610" y="72.6045">Aplicaciones</text></g><!--class ModeloJuego--><g class="entity" data-entity="ModeloJuego" data-source-line="7" data-uid="ent0003" id="entity_ModeloJuego"><rect fill="#FFFFFF" height="44" rx="2.5" ry="2.5" style="stroke:#000000;stroke-width:1;" width="117.667" x="791.17" y="481.6094"/><ellipse cx="804.17" cy="495.6094" fill="#FFFFFF" rx="9" ry="9" style="stroke:#000000;stroke-width:1;"/><path d="M807.1388,501.25 Q806.5606,501.5469 805.92,501.6875 Q805.2794,501.8438 804.5763,501.8438 Q802.0763,501.8438 800.7481,500.2031 Q799.4356,498.5469 799.4356,495.4219 Q799.4356,492.2969 800.7481,490.6406 Q802.0763,488.9844 804.5763,488.9844 Q805.2794,488.9844 805.92,489.1406 Q806.5763,489.2969 807.1388,489.5938 L807.1388,492.3125 Q806.5138,491.7344 805.92,491.4688 Q805.3263,491.1875 804.7013,491.1875 Q803.3575,491.1875 802.67,492.2656 Q801.9825,493.3281 801.9825,495.4219 Q801.9825,497.5156 802.67,498.5938 Q803.3575,499.6563 804.7013,499.6563 Q805.3263,499.6563 805.92,499.3906 Q806.5138,499.1094 807.1388,498.5313 L807.1388,501.25 Z " fill="#000000"/><text fill="#000000" font-family="Verdana" font-size="14" lengthAdjust="spacing" textLength="89.667" x="816.17" y="500.4561">ModeloJuego</text><line style="stroke:#000000;stroke-width:1;" x1="792.17" x2="907.837" y1="509.6094" y2="509.6094"/><line style="stroke:#000000;stroke-width:1;" x1="792.17" x2="907.837" y1="517.6094" y2="517.6094"/></g><!--class Jugador--><g class="entity" data-entity="Jugador" data-source-line="8" data-uid="ent0004" id="entity_Jugador"><rect fill="#FFFFFF" height="44" rx="2.5" ry="2.5" style="stroke:#000000;stroke-width:1;" width="81.6758" x="1024.16" y="585.6094"/><ellipse cx="1037.16" cy="599.6094" fill="#FFFFFF" rx="9" ry="9" style="stroke:#000000;stroke-width:1;"/><path d="M1040.1288,605.25 Q1039.5506,605.5469 1038.91,605.6875 Q1038.2694,605.8438 1037.5663,605.8438 Q1035.0663,605.8438 1033.7381,604.2031 Q1032.4256,602.5469 1032.4256,599.4219 Q1032.4256,596.2969 1033.7381,594.6406 Q1035.0663,592.9844 1037.5663,592.9844 Q1038.2694,592.9844 1038.91,593.1406 Q1039.5663,593.2969 1040.1288,593.5938 L1040.1288,596.3125 Q1039.5038,595.7344 1038.91,595.4688 Q1038.3163,595.1875 1037.6913,595.1875 Q1036.3475,595.1875 1035.66,596.2656 Q1034.9725,597.3281 1034.9725,599.4219 Q1034.9725,601.5156 1035.66,602.5938 Q1036.3475,603.6563 1037.6913,603.6563 Q1038.3163,603.6563 1038.91,603.3906 Q1039.5038,603.1094 1040.1288,602.5313 L1040.1288,605.25 Z " fill="#000000"/><text fill="#000000" font-family="Verdana" font-size="14" lengthAdjust="spacing" textLength="53.6758" x="1049.16" y="604.4561">Jugador</text><line style="stroke:#000000;stroke-width:1;" x1="1025.16" x2="1104.8358" y1="613.6094" y2="613.6094"/><line style="stroke:#000000;stroke-width:1;" x1="1025.16" x2="1104.8358" y1="621.6094" y2="621.6094"/></g><!--class Tablero--><g class="entity" data-entity="Tablero" data-source-line="9" data-uid="ent0005" id="entity_Tablero"><rect fill="#FFFFFF" height="44" rx="2.5" ry="2.5" style="stroke:#000000;stroke-width:1;" width="80.8418" x="642.58" y="585.6094"/><ellipse cx="655.58" cy="599.6094" fill="#FFFFFF" rx="9" ry="9" style="stroke:#000000;stroke-width:1;"/><path d="M658.5488,605.25 Q657.9706,605.5469 657.33,605.6875 Q656.6894,605.8438 655.9863,605.8438 Q653.4863,605.8438 652.1581,604.2031 Q650.8456,602.5469 650.8456,599.4219 Q650.8456,596.2969 652.1581,594.6406 Q653.4863,592.9844 655.9863,592.9844 Q656.6894,592.9844 657.33,593.1406 Q657.9863,593.2969 658.5488,593.5938 L658.5488,596.3125 Q657.9238,595.7344 657.33,595.4688 Q656.7363,595.1875 656.1113,595.1875 Q654.7675,595.1875 654.08,596.2656 Q653.3925,597.3281 653.3925,599.4219 Q653.3925,601.5156 654.08,602.5938 Q654.7675,603.6563 656.1113,603.6563 Q656.7363,603.6563 657.33,603.3906 Q657.9238,603.1094 658.5488,602.5313 L658.5488,605.25 Z " fill="#000000"/><text fill="#000000" font-family="Verdana" font-size="14" lengthAdjust="spacing" textLength="52.8418" x="667.58" y="604.4561">Tablero</text><line style="stroke:#000000;stroke-width:1;" x1="643.58" x2="722.4218" y1="613.6094" y2="613.6094"/><line style="stroke:#000000;stroke-width:1;" x1="643.58" x2="722.4218" y1="621.6094" y2="621.6094"/></g><!--class BolsaFichas--><g class="entity" data-entity="BolsaFichas" data-source-line="10" data-uid="ent0006" id="entity_BolsaFichas"><rect fill="#FFFFFF" height="44" rx="2.5" ry="2.5" style="stroke:#000000;stroke-width:1;" width="110.3184" x="758.84" y="585.6094"/><ellipse cx="771.84" cy="599.6094" fill="#FFFFFF" rx="9" ry="9" style="stroke:#000000;stroke-width:1;"/><path d="M774.8088,605.25 Q774.2306,605.5469 773.59,605.6875 Q772.9494,605.8438 772.2463,605.8438 Q769.7463,605.8438 768.4181,604.2031 Q767.1056,602.5469 767.1056,599.4219 Q767.1056,596.2969 768.4181,594.6406 Q769.7463,592.9844 772.2463,592.9844 Q772.9494,592.9844 773.59,593.1406 Q774.2463,593.2969 774.8088,593.5938 L774.8088,596.3125 Q774.1838,595.7344 773.59,595.4688 Q772.9963,595.1875 772.3713,595.1875 Q771.0275,595.1875 770.34,596.2656 Q769.6525,597.3281 769.6525,599.4219 Q769.6525,601.5156 770.34,602.5938 Q771.0275,603.6563 772.3713,603.6563 Q772.9963,603.6563 773.59,603.3906 Q774.1838,603.1094 774.8088,602.5313 L774.8088,605.25 Z " fill="#000000"/><text fill="#000000" font-family="Verdana" font-size="14" lengthAdjust="spacing" textLength="82.3184" x="783.84" y="604.4561">BolsaFichas</text><line style="stroke:#000000;stroke-width:1;" x1="759.84" x2="868.1584" y1="613.6094" y2="613.6094"/><line style="stroke:#000000;stroke-width:1;" x1="759.84" x2="868.1584" y1="621.6094" y2="621.6094"/></g><!--class Letra--><g class="entity" data-entity="Letra" data-source-line="11" data-uid="ent0007" id="entity_Letra"><rect fill="#FFFFFF" height="44" rx="2.5" ry="2.5" style="stroke:#000000;stroke-width:1;" width="64.2373" x="1090.88" y="689.6094"/><ellipse cx="1103.88" cy="703.6094" fill="#FFFFFF" rx="9" ry="9" style="stroke:#000000;stroke-width:1;"/><path d="M1106.8488,709.25 Q1106.2706,709.5469 1105.63,709.6875 Q1104.9894,709.8438 1104.2863,709.8438 Q1101.7863,709.8438 1100.4581,708.2031 Q1099.1456,706.5469 1099.1456,703.4219 Q1099.1456,700.2969 1100.4581,698.6406 Q1101.7863,696.9844 1104.2863,696.9844 Q1104.9894,696.9844 1105.63,697.1406 Q1106.2863,697.2969 1106.8488,697.5938 L1106.8488,700.3125 Q1106.2238,699.7344 1105.63,699.4688 Q1105.0363,699.1875 1104.4113,699.1875 Q1103.0675,699.1875 1102.38,700.2656 Q1101.6925,701.3281 1101.6925,703.4219 Q1101.6925,705.5156 1102.38,706.5938 Q1103.0675,707.6563 1104.4113,707.6563 Q1105.0363,707.6563 1105.63,707.3906 Q1106.2238,707.1094 1106.8488,706.5313 L1106.8488,709.25 Z " fill="#000000"/><text fill="#000000" font-family="Verdana" font-size="14" lengthAdjust="spacing" textLength="36.2373" x="1115.88" y="708.4561">Letra</text><line style="stroke:#000000;stroke-width:1;" x1="1091.88" x2="1154.1173" y1="717.6094" y2="717.6094"/><line style="stroke:#000000;stroke-width:1;" x1="1091.88" x2="1154.1173" y1="725.6094" y2="725.6094"/></g><!--class Palabra--><g class="entity" data-entity="Palabra" data-source-line="12" data-uid="ent0008" id="entity_Palabra"><rect fill="#FFFFFF" height="44" rx="2.5" ry="2.5" style="stroke:#000000;stroke-width:1;" width="80.7119" x="1140.64" y="585.6094"/><ellipse cx="1153.64" cy="599.6094" fill="#FFFFFF" rx="9" ry="9" style="stroke:#000000;stroke-width:1;"/><path d="M1156.6088,605.25 Q1156.0306,605.5469 1155.39,605.6875 Q1154.7494,605.8438 1154.0463,605.8438 Q1151.5463,605.8438 1150.2181,604.2031 Q1148.9056,602.5469 1148.9056,599.4219 Q1148.9056,596.2969 1150.2181,594.6406 Q1151.5463,592.9844 1154.0463,592.9844 Q1154.7494,592.9844 1155.39,593.1406 Q1156.0463,593.2969 1156.6088,593.5938 L1156.6088,596.3125 Q1155.9838,595.7344 1155.39,595.4688 Q1154.7963,595.1875 1154.1713,595.1875 Q1152.8275,595.1875 1152.14,596.2656 Q1151.4525,597.3281 1151.4525,599.4219 Q1151.4525,601.5156 1152.14,602.5938 Q1152.8275,603.6563 1154.1713,603.6563 Q1154.7963,603.6563 1155.39,603.3906 Q1155.9838,603.1094 1156.6088,602.5313 L1156.6088,605.25 Z " fill="#000000"/><text fill="#000000" font-family="Verdana" font-size="14" lengthAdjust="spacing" textLength="52.7119" x="1165.64" y="604.4561">Palabra</text><line style="stroke:#000000;stroke-width:1;" x1="1141.64" x2="1220.3519" y1="613.6094" y2="613.6094"/><line style="stroke:#000000;stroke-width:1;" x1="1141.64" x2="1220.3519" y1="621.6094" y2="621.6094"/></g><!--class Casillero--><g class="entity" data-entity="Casillero" data-source-line="13" data-uid="ent0009" id="entity_Casillero"><rect fill="#FFFFFF" height="44" rx="2.5" ry="2.5" style="stroke:#000000;stroke-width:1;" width="88.252" x="642.87" y="689.6094"/><ellipse cx="655.87" cy="703.6094" fill="#FFFFFF" rx="9" ry="9" style="stroke:#000000;stroke-width:1;"/><path d="M658.8388,709.25 Q658.2606,709.5469 657.62,709.6875 Q656.9794,709.8438 656.2763,709.8438 Q653.7763,709.8438 652.4481,708.2031 Q651.1356,706.5469 651.1356,703.4219 Q651.1356,700.2969 652.4481,698.6406 Q653.7763,696.9844 656.2763,696.9844 Q656.9794,696.9844 657.62,697.1406 Q658.2763,697.2969 658.8388,697.5938 L658.8388,700.3125 Q658.2138,699.7344 657.62,699.4688 Q657.0263,699.1875 656.4013,699.1875 Q655.0575,699.1875 654.37,700.2656 Q653.6825,701.3281 653.6825,703.4219 Q653.6825,705.5156 654.37,706.5938 Q655.0575,707.6563 656.4013,707.6563 Q657.0263,707.6563 657.62,707.3906 Q658.2138,707.1094 658.8388,706.5313 L658.8388,709.25 Z " fill="#000000"/><text fill="#000000" font-family="Verdana" font-size="14" lengthAdjust="spacing" textLength="60.252" x="667.87" y="708.4561">Casillero</text><line style="stroke:#000000;stroke-width:1;" x1="643.87" x2="730.122" y1="717.6094" y2="717.6094"/><line style="stroke:#000000;stroke-width:1;" x1="643.87" x2="730.122" y1="725.6094" y2="725.6094"/></g><!--class Ranking--><g class="entity" data-entity="Ranking" data-source-line="14" data-uid="ent0010" id="entity_Ranking"><rect fill="#FFFFFF" height="44" rx="2.5" ry="2.5" style="stroke:#000000;stroke-width:1;" width="84.9365" x="904.53" y="585.6094"/><ellipse cx="917.53" cy="599.6094" fill="#FFFFFF" rx="9" ry="9" style="stroke:#000000;stroke-width:1;"/><path d="M920.4988,605.25 Q919.9206,605.5469 919.28,605.6875 Q918.6394,605.8438 917.9363,605.8438 Q915.4363,605.8438 914.1081,604.2031 Q912.7956,602.5469 912.7956,599.4219 Q912.7956,596.2969 914.1081,594.6406 Q915.4363,592.9844 917.9363,592.9844 Q918.6394,592.9844 919.28,593.1406 Q919.9363,593.2969 920.4988,593.5938 L920.4988,596.3125 Q919.8738,595.7344 919.28,595.4688 Q918.6863,595.1875 918.0613,595.1875 Q916.7175,595.1875 916.03,596.2656 Q915.3425,597.3281 915.3425,599.4219 Q915.3425,601.5156 916.03,602.5938 Q916.7175,603.6563 918.0613,603.6563 Q918.6863,603.6563 919.28,603.3906 Q919.8738,603.1094 920.4988,602.5313 L920.4988,605.25 Z " fill="#000000"/><text fill="#000000" font-family="Verdana" font-size="14" lengthAdjust="spacing" textLength="56.9365" x="929.53" y="604.4561">Ranking</text><line style="stroke:#000000;stroke-width:1;" x1="905.53" x2="988.4665" y1="613.6094" y2="613.6094"/><line style="stroke:#000000;stroke-width:1;" x1="905.53" x2="988.4665" y1="621.6094" y2="621.6094"/></g><!--class Diccionario--><g class="entity" data-entity="Diccionario" data-source-line="15" data-uid="ent0011" id="entity_Diccionario"><rect fill="#FFFFFF" height="44" rx="2.5" ry="2.5" style="stroke:#000000;stroke-width:1;" width="106.1826" x="1046.91" y="481.6094"/><ellipse cx="1059.91" cy="495.6094" fill="#FFFFFF" rx="9" ry="9" style="stroke:#000000;stroke-width:1;"/><path d="M1062.8788,501.25 Q1062.3006,501.5469 1061.66,501.6875 Q1061.0194,501.8438 1060.3163,501.8438 Q1057.8163,501.8438 1056.4881,500.2031 Q1055.1756,498.5469 1055.1756,495.4219 Q1055.1756,492.2969 1056.4881,490.6406 Q1057.8163,488.9844 1060.3163,488.9844 Q1061.0194,488.9844 1061.66,489.1406 Q1062.3163,489.2969 1062.8788,489.5938 L1062.8788,492.3125 Q1062.2538,491.7344 1061.66,491.4688 Q1061.0663,491.1875 1060.4413,491.1875 Q1059.0975,491.1875 1058.41,492.2656 Q1057.7225,493.3281 1057.7225,495.4219 Q1057.7225,497.5156 1058.41,498.5938 Q1059.0975,499.6563 1060.4413,499.6563 Q1061.0663,499.6563 1061.66,499.3906 Q1062.2538,499.1094 1062.8788,498.5313 L1062.8788,501.25 Z " fill="#000000"/><text fill="#000000" font-family="Verdana" font-size="14" lengthAdjust="spacing" textLength="78.1826" x="1071.91" y="500.4561">Diccionario</text><line style="stroke:#000000;stroke-width:1;" x1="1047.91" x2="1152.0926" y1="509.6094" y2="509.6094"/><line style="stroke:#000000;stroke-width:1;" x1="1047.91" x2="1152.0926" y1="517.6094" y2="517.6094"/></g><!--class VistaGrafica--><g class="entity" data-entity="VistaGrafica" data-source-line="20" data-uid="ent0013" id="entity_VistaGrafica"><rect fill="#FFFFFF" height="44" rx="2.5" ry="2.5" style="stroke:#000000;stroke-width:1;" width="113.1074" x="386.45" y="235.6094"/><ellipse cx="399.45" cy="249.6094" fill="#FFFFFF" rx="9" ry="9" style="stroke:#000000;stroke-width:1;"/><path d="M402.4188,255.25 Q401.8406,255.5469 401.2,255.6875 Q400.5594,255.8438 399.8563,255.8438 Q397.3563,255.8438 396.0281,254.2031 Q394.7156,252.5469 394.7156,249.4219 Q394.7156,246.2969 396.0281,244.6406 Q397.3563,242.9844 399.8563,242.9844 Q400.5594,242.9844 401.2,243.1406 Q401.8563,243.2969 402.4188,243.5938 L402.4188,246.3125 Q401.7938,245.7344 401.2,245.4688 Q400.6063,245.1875 399.9813,245.1875 Q398.6375,245.1875 397.95,246.2656 Q397.2625,247.3281 397.2625,249.4219 Q397.2625,251.5156 397.95,252.5938 Q398.6375,253.6563 399.9813,253.6563 Q400.6063,253.6563 401.2,253.3906 Q401.7938,253.1094 402.4188,252.5313 L402.4188,255.25 Z " fill="#000000"/><text fill="#000000" font-family="Verdana" font-size="14" lengthAdjust="spacing" textLength="85.1074" x="411.45" y="254.4561">VistaGrafica</text><line style="stroke:#000000;stroke-width:1;" x1="387.45" x2="498.5574" y1="263.6094" y2="263.6094"/><line style="stroke:#000000;stroke-width:1;" x1="387.45" x2="498.5574" y1="271.6094" y2="271.6094"/></g><!--class VentanaTablero--><g class="entity" data-entity="VentanaTablero" data-source-line="21" data-uid="ent0014" id="entity_VentanaTablero"><rect fill="#FFFFFF" height="44" rx="2.5" ry="2.5" style="stroke:#000000;stroke-width:1;" width="139.4258" x="358.29" y="346.6094"/><ellipse cx="371.29" cy="360.6094" fill="#FFFFFF" rx="9" ry="9" style="stroke:#000000;stroke-width:1;"/><path d="M374.2588,366.25 Q373.6806,366.5469 373.04,366.6875 Q372.3994,366.8438 371.6963,366.8438 Q369.1963,366.8438 367.8681,365.2031 Q366.5556,363.5469 366.5556,360.4219 Q366.5556,357.2969 367.8681,355.6406 Q369.1963,353.9844 371.6963,353.9844 Q372.3994,353.9844 373.04,354.1406 Q373.6963,354.2969 374.2588,354.5938 L374.2588,357.3125 Q373.6338,356.7344 373.04,356.4688 Q372.4463,356.1875 371.8213,356.1875 Q370.4775,356.1875 369.79,357.2656 Q369.1025,358.3281 369.1025,360.4219 Q369.1025,362.5156 369.79,363.5938 Q370.4775,364.6563 371.8213,364.6563 Q372.4463,364.6563 373.04,364.3906 Q373.6338,364.1094 374.2588,363.5313 L374.2588,366.25 Z " fill="#000000"/><text fill="#000000" font-family="Verdana" font-size="14" lengthAdjust="spacing" textLength="111.4258" x="383.29" y="365.4561">VentanaTablero</text><line style="stroke:#000000;stroke-width:1;" x1="359.29" x2="496.7158" y1="374.6094" y2="374.6094"/><line style="stroke:#000000;stroke-width:1;" x1="359.29" x2="496.7158" y1="382.6094" y2="382.6094"/></g><!--class VentanaPrincipal--><g class="entity" data-entity="VentanaPrincipal" data-source-line="22" data-uid="ent0015" id="entity_VentanaPrincipal"><rect fill="#FFFFFF" height="44" rx="2.5" ry="2.5" style="stroke:#000000;stroke-width:1;" width="146.4873" x="26.76" y="235.6094"/><ellipse cx="39.76" cy="249.6094" fill="#FFFFFF" rx="9" ry="9" style="stroke:#000000;stroke-width:1;"/><path d="M42.7288,255.25 Q42.1506,255.5469 41.51,255.6875 Q40.8694,255.8438 40.1663,255.8438 Q37.6663,255.8438 36.3381,254.2031 Q35.0256,252.5469 35.0256,249.4219 Q35.0256,246.2969 36.3381,244.6406 Q37.6663,242.9844 40.1663,242.9844 Q40.8694,242.9844 41.51,243.1406 Q42.1663,243.2969 42.7288,243.5938 L42.7288,246.3125 Q42.1038,245.7344 41.51,245.4688 Q40.9163,245.1875 40.2913,245.1875 Q38.9475,245.1875 38.26,246.2656 Q37.5725,247.3281 37.5725,249.4219 Q37.5725,251.5156 38.26,252.5938 Q38.9475,253.6563 40.2913,253.6563 Q40.9163,253.6563 41.51,253.3906 Q42.1038,253.1094 42.7288,252.5313 L42.7288,255.25 Z " fill="#000000"/><text fill="#000000" font-family="Verdana" font-size="14" lengthAdjust="spacing" textLength="118.4873" x="51.76" y="254.4561">VentanaPrincipal</text><line style="stroke:#000000;stroke-width:1;" x1="27.76" x2="172.2473" y1="263.6094" y2="263.6094"/><line style="stroke:#000000;stroke-width:1;" x1="27.76" x2="172.2473" y1="271.6094" y2="271.6094"/></g><!--class VentanaRanking--><g class="entity" data-entity="VentanaRanking" data-source-line="23" data-uid="ent0016" id="entity_VentanaRanking"><rect fill="#FFFFFF" height="44" rx="2.5" ry="2.5" style="stroke:#000000;stroke-width:1;" width="143.5205" x="208.24" y="235.6094"/><ellipse cx="221.24" cy="249.6094" fill="#FFFFFF" rx="9" ry="9" style="stroke:#000000;stroke-width:1;"/><path d="M224.2088,255.25 Q223.6306,255.5469 222.99,255.6875 Q222.3494,255.8438 221.6463,255.8438 Q219.1463,255.8438 217.8181,254.2031 Q216.5056,252.5469 216.5056,249.4219 Q216.5056,246.2969 217.8181,244.6406 Q219.1463,242.9844 221.6463,242.9844 Q222.3494,242.9844 222.99,243.1406 Q223.6463,243.2969 224.2088,243.5938 L224.2088,246.3125 Q223.5838,245.7344 222.99,245.4688 Q222.3963,245.1875 221.7713,245.1875 Q220.4275,245.1875 219.74,246.2656 Q219.0525,247.3281 219.0525,249.4219 Q219.0525,251.5156 219.74,252.5938 Q220.4275,253.6563 221.7713,253.6563 Q222.3963,253.6563 222.99,253.3906 Q223.5838,253.1094 224.2088,252.5313 L224.2088,255.25 Z " fill="#000000"/><text fill="#000000" font-family="Verdana" font-size="14" lengthAdjust="spacing" textLength="115.5205" x="233.24" y="254.4561">VentanaRanking</text><line style="stroke:#000000;stroke-width:1;" x1="209.24" x2="350.7605" y1="263.6094" y2="263.6094"/><line style="stroke:#000000;stroke-width:1;" x1="209.24" x2="350.7605" y1="271.6094" y2="271.6094"/></g><!--class Vista--><g class="entity" data-entity="Vista" data-source-line="24" data-uid="ent0017" id="entity_Vista"><rect fill="#FFFFFF" height="44" rx="2.5" ry="2.5" style="stroke:#000000;stroke-width:1;" width="62.8291" x="68.59" y="346.6094"/><ellipse cx="81.59" cy="360.6094" fill="#FFFFFF" rx="9" ry="9" style="stroke:#000000;stroke-width:1;"/><path d="M84.5588,366.25 Q83.9806,366.5469 83.34,366.6875 Q82.6994,366.8438 81.9963,366.8438 Q79.4963,366.8438 78.1681,365.2031 Q76.8556,363.5469 76.8556,360.4219 Q76.8556,357.2969 78.1681,355.6406 Q79.4963,353.9844 81.9963,353.9844 Q82.6994,353.9844 83.34,354.1406 Q83.9963,354.2969 84.5588,354.5938 L84.5588,357.3125 Q83.9338,356.7344 83.34,356.4688 Q82.7463,356.1875 82.1213,356.1875 Q80.7775,356.1875 80.09,357.2656 Q79.4025,358.3281 79.4025,360.4219 Q79.4025,362.5156 80.09,363.5938 Q80.7775,364.6563 82.1213,364.6563 Q82.7463,364.6563 83.34,364.3906 Q83.9338,364.1094 84.5588,363.5313 L84.5588,366.25 Z " fill="#000000"/><text fill="#000000" font-family="Verdana" font-size="14" lengthAdjust="spacing" textLength="34.8291" x="93.59" y="365.4561">Vista</text><line style="stroke:#000000;stroke-width:1;" x1="69.59" x2="130.4191" y1="374.6094" y2="374.6094"/><line style="stroke:#000000;stroke-width:1;" x1="69.59" x2="130.4191" y1="382.6094" y2="382.6094"/></g><!--class Controlador--><g class="entity" data-entity="Controlador" data-source-line="29" data-uid="ent0019" id="entity_Controlador"><rect fill="#FFFFFF" height="44" rx="2.5" ry="2.5" style="stroke:#000000;stroke-width:1;" width="110.7012" x="703.65" y="346.6094"/><ellipse cx="716.65" cy="360.6094" fill="#FFFFFF" rx="9" ry="9" style="stroke:#000000;stroke-width:1;"/><path d="M719.6188,366.25 Q719.0406,366.5469 718.4,366.6875 Q717.7594,366.8438 717.0563,366.8438 Q714.5563,366.8438 713.2281,365.2031 Q711.9156,363.5469 711.9156,360.4219 Q711.9156,357.2969 713.2281,355.6406 Q714.5563,353.9844 717.0563,353.9844 Q717.7594,353.9844 718.4,354.1406 Q719.0563,354.2969 719.6188,354.5938 L719.6188,357.3125 Q718.9938,356.7344 718.4,356.4688 Q717.8063,356.1875 717.1813,356.1875 Q715.8375,356.1875 715.15,357.2656 Q714.4625,358.3281 714.4625,360.4219 Q714.4625,362.5156 715.15,363.5938 Q715.8375,364.6563 717.1813,364.6563 Q717.8063,364.6563 718.4,364.3906 Q718.9938,364.1094 719.6188,363.5313 L719.6188,366.25 Z " fill="#000000"/><text fill="#000000" font-family="Verdana" font-size="14" lengthAdjust="spacing" textLength="82.7012" x="728.65" y="365.4561">Controlador</text><line style="stroke:#000000;stroke-width:1;" x1="704.65" x2="813.3512" y1="374.6094" y2="374.6094"/><line style="stroke:#000000;stroke-width:1;" x1="704.65" x2="813.3512" y1="382.6094" y2="382.6094"/></g><!--class ModeloTablero--><g class="entity" data-entity="ModeloTablero" data-source-line="34" data-uid="ent0021" id="entity_ModeloTablero"><rect fill="#FFFFFF" height="44" rx="2.5" ry="2.5" style="stroke:#000000;stroke-width:1;" width="131.4414" x="142.28" y="481.6094"/><ellipse cx="155.28" cy="495.6094" fill="#FFFFFF" rx="9" ry="9" style="stroke:#000000;stroke-width:1;"/><path d="M158.2488,501.25 Q157.6706,501.5469 157.03,501.6875 Q156.3894,501.8438 155.6863,501.8438 Q153.1863,501.8438 151.8581,500.2031 Q150.5456,498.5469 150.5456,495.4219 Q150.5456,492.2969 151.8581,490.6406 Q153.1863,488.9844 155.6863,488.9844 Q156.3894,488.9844 157.03,489.1406 Q157.6863,489.2969 158.2488,489.5938 L158.2488,492.3125 Q157.6238,491.7344 157.03,491.4688 Q156.4363,491.1875 155.8113,491.1875 Q154.4675,491.1875 153.78,492.2656 Q153.0925,493.3281 153.0925,495.4219 Q153.0925,497.5156 153.78,498.5938 Q154.4675,499.6563 155.8113,499.6563 Q156.4363,499.6563 157.03,499.3906 Q157.6238,499.1094 158.2488,498.5313 L158.2488,501.25 Z " fill="#000000"/><text fill="#000000" font-family="Verdana" font-size="14" lengthAdjust="spacing" textLength="103.4414" x="167.28" y="500.4561">ModeloTablero</text><line style="stroke:#000000;stroke-width:1;" x1="143.28" x2="272.7214" y1="509.6094" y2="509.6094"/><line style="stroke:#000000;stroke-width:1;" x1="143.28" x2="272.7214" y1="517.6094" y2="517.6094"/></g><!--class ModeloAtril--><g class="entity" data-entity="ModeloAtril" data-source-line="35" data-uid="ent0022" id="entity_ModeloAtril"><rect fill="#FFFFFF" height="44" rx="2.5" ry="2.5" style="stroke:#000000;stroke-width:1;" width="107.2012" x="308.4" y="481.6094"/><ellipse cx="321.4" cy="495.6094" fill="#FFFFFF" rx="9" ry="9" style="stroke:#000000;stroke-width:1;"/><path d="M324.3688,501.25 Q323.7906,501.5469 323.15,501.6875 Q322.5094,501.8438 321.8063,501.8438 Q319.3063,501.8438 317.9781,500.2031 Q316.6656,498.5469 316.6656,495.4219 Q316.6656,492.2969 317.9781,490.6406 Q319.3063,488.9844 321.8063,488.9844 Q322.5094,488.9844 323.15,489.1406 Q323.8063,489.2969 324.3688,489.5938 L324.3688,492.3125 Q323.7438,491.7344 323.15,491.4688 Q322.5563,491.1875 321.9313,491.1875 Q320.5875,491.1875 319.9,492.2656 Q319.2125,493.3281 319.2125,495.4219 Q319.2125,497.5156 319.9,498.5938 Q320.5875,499.6563 321.9313,499.6563 Q322.5563,499.6563 323.15,499.3906 Q323.7438,499.1094 324.3688,498.5313 L324.3688,501.25 Z " fill="#000000"/><text fill="#000000" font-family="Verdana" font-size="14" lengthAdjust="spacing" textLength="79.2012" x="333.4" y="500.4561">ModeloAtril</text><line style="stroke:#000000;stroke-width:1;" x1="309.4" x2="414.6012" y1="509.6094" y2="509.6094"/><line style="stroke:#000000;stroke-width:1;" x1="309.4" x2="414.6012" y1="517.6094" y2="517.6094"/></g><!--class JTableAtril--><g class="entity" data-entity="JTableAtril" data-source-line="36" data-uid="ent0023" id="entity_JTableAtril"><rect fill="#FFFFFF" height="44" rx="2.5" ry="2.5" style="stroke:#000000;stroke-width:1;" width="99.251" x="450.37" y="481.6094"/><ellipse cx="463.37" cy="495.6094" fill="#FFFFFF" rx="9" ry="9" style="stroke:#000000;stroke-width:1;"/><path d="M466.3388,501.25 Q465.7606,501.5469 465.12,501.6875 Q464.4794,501.8438 463.7763,501.8438 Q461.2763,501.8438 459.9481,500.2031 Q458.6356,498.5469 458.6356,495.4219 Q458.6356,492.2969 459.9481,490.6406 Q461.2763,488.9844 463.7763,488.9844 Q464.4794,488.9844 465.12,489.1406 Q465.7763,489.2969 466.3388,489.5938 L466.3388,492.3125 Q465.7138,491.7344 465.12,491.4688 Q464.5263,491.1875 463.9013,491.1875 Q462.5575,491.1875 461.87,492.2656 Q461.1825,493.3281 461.1825,495.4219 Q461.1825,497.5156 461.87,498.5938 Q462.5575,499.6563 463.9013,499.6563 Q464.5263,499.6563 465.12,499.3906 Q465.7138,499.1094 466.3388,498.5313 L466.3388,501.25 Z " fill="#000000"/><text fill="#000000" font-family="Verdana" font-size="14" lengthAdjust="spacing" textLength="71.251" x="475.37" y="500.4561">JTableAtril</text><line style="stroke:#000000;stroke-width:1;" x1="451.37" x2="548.621" y1="509.6094" y2="509.6094"/><line style="stroke:#000000;stroke-width:1;" x1="451.37" x2="548.621" y1="517.6094" y2="517.6094"/></g><!--class AppServidor--><g class="entity" data-entity="AppServidor" data-source-line="41" data-uid="ent0025" id="entity_AppServidor"><rect fill="#FFFFFF" height="44" rx="2.5" ry="2.5" style="stroke:#000000;stroke-width:1;" width="113.9893" x="855.01" y="100.6094"/><ellipse cx="868.01" cy="114.6094" fill="#FFFFFF" rx="9" ry="9" style="stroke:#000000;stroke-width:1;"/><path d="M870.9788,120.25 Q870.4006,120.5469 869.76,120.6875 Q869.1194,120.8438 868.4163,120.8438 Q865.9163,120.8438 864.5881,119.2031 Q863.2756,117.5469 863.2756,114.4219 Q863.2756,111.2969 864.5881,109.6406 Q865.9163,107.9844 868.4163,107.9844 Q869.1194,107.9844 869.76,108.1406 Q870.4163,108.2969 870.9788,108.5938 L870.9788,111.3125 Q870.3538,110.7344 869.76,110.4688 Q869.1663,110.1875 868.5413,110.1875 Q867.1975,110.1875 866.51,111.2656 Q865.8225,112.3281 865.8225,114.4219 Q865.8225,116.5156 866.51,117.5938 Q867.1975,118.6563 868.5413,118.6563 Q869.1663,118.6563 869.76,118.3906 Q870.3538,118.1094 870.9788,117.5313 L870.9788,120.25 Z " fill="#000000"/><text fill="#000000" font-family="Verdana" font-size="14" lengthAdjust="spacing" textLength="85.9893" x="880.01" y="119.4561">AppServidor</text><line style="stroke:#000000;stroke-width:1;" x1="856.01" x2="967.9993" y1="128.6094" y2="128.6094"/><line style="stroke:#000000;stroke-width:1;" x1="856.01" x2="967.9993" y1="136.6094" y2="136.6094"/></g><!--class AppClienteVistaGrafica--><g class="entity" data-entity="AppClienteVistaGrafica" data-source-line="42" data-uid="ent0026" id="entity_AppClienteVistaGrafica"><rect fill="#FFFFFF" height="44" rx="2.5" ry="2.5" style="stroke:#000000;stroke-width:1;" width="189.6016" x="630.2" y="100.6094"/><ellipse cx="643.2" cy="114.6094" fill="#FFFFFF" rx="9" ry="9" style="stroke:#000000;stroke-width:1;"/><path d="M646.1688,120.25 Q645.5906,120.5469 644.95,120.6875 Q644.3094,120.8438 643.6063,120.8438 Q641.1063,120.8438 639.7781,119.2031 Q638.4656,117.5469 638.4656,114.4219 Q638.4656,111.2969 639.7781,109.6406 Q641.1063,107.9844 643.6063,107.9844 Q644.3094,107.9844 644.95,108.1406 Q645.6063,108.2969 646.1688,108.5938 L646.1688,111.3125 Q645.5438,110.7344 644.95,110.4688 Q644.3563,110.1875 643.7313,110.1875 Q642.3875,110.1875 641.7,111.2656 Q641.0125,112.3281 641.0125,114.4219 Q641.0125,116.5156 641.7,117.5938 Q642.3875,118.6563 643.7313,118.6563 Q644.3563,118.6563 644.95,118.3906 Q645.5438,118.1094 646.1688,117.5313 L646.1688,120.25 Z " fill="#000000"/><text fill="#000000" font-family="Verdana" font-size="14" lengthAdjust="spacing" textLength="161.6016" x="655.2" y="119.4561">AppClienteVistaGrafica</text><line style="stroke:#000000;stroke-width:1;" x1="631.2" x2="818.8016" y1="128.6094" y2="128.6094"/><line style="stroke:#000000;stroke-width:1;" x1="631.2" x2="818.8016" y1="136.6094" y2="136.6094"/></g><!--class AppCliente--><g class="entity" data-entity="AppCliente" data-source-line="43" data-uid="ent0027" id="entity_AppCliente"><rect fill="#FFFFFF" height="44" rx="2.5" ry="2.5" style="stroke:#000000;stroke-width:1;" width="104.4941" x="1003.75" y="100.6094"/><ellipse cx="1016.75" cy="114.6094" fill="#FFFFFF" rx="9" ry="9" style="stroke:#000000;stroke-width:1;"/><path d="M1019.7188,120.25 Q1019.1406,120.5469 1018.5,120.6875 Q1017.8594,120.8438 1017.1563,120.8438 Q1014.6563,120.8438 1013.3281,119.2031 Q1012.0156,117.5469 1012.0156,114.4219 Q1012.0156,111.2969 1013.3281,109.6406 Q1014.6563,107.9844 1017.1563,107.9844 Q1017.8594,107.9844 1018.5,108.1406 Q1019.1563,108.2969 1019.7188,108.5938 L1019.7188,111.3125 Q1019.0938,110.7344 1018.5,110.4688 Q1017.9063,110.1875 1017.2813,110.1875 Q1015.9375,110.1875 1015.25,111.2656 Q1014.5625,112.3281 1014.5625,114.4219 Q1014.5625,116.5156 1015.25,117.5938 Q1015.9375,118.6563 1017.2813,118.6563 Q1017.9063,118.6563 1018.5,118.3906 Q1019.0938,118.1094 1019.7188,117.5313 L1019.7188,120.25 Z " fill="#000000"/><text fill="#000000" font-family="Verdana" font-size="14" lengthAdjust="spacing" textLength="76.4941" x="1028.75" y="119.4561">AppCliente</text><line style="stroke:#000000;stroke-width:1;" x1="1004.75" x2="1107.2441" y1="128.6094" y2="128.6094"/><line style="stroke:#000000;stroke-width:1;" x1="1004.75" x2="1107.2441" y1="136.6094" y2="136.6094"/></g><g class="entity" data-entity="GMN43" data-source-line="66" data-uid="ent0044" id="entity_GMN43"><path d="M532.33,356.0394 L532.33,381.1722 L655.6669,381.1722 L655.6669,366.0394 L645.6669,356.0394 L532.33,356.0394" fill="#FFFFFF" style="stroke:#000000;stroke-width:1;"/><path d="M645.6669,356.0394 L645.6669,366.0394 L655.6669,366.0394 L645.6669,356.0394" fill="#FFFFFF" style="stroke:#000000;stroke-width:1;"/><text fill="#000000" font-family="Verdana" font-size="13" lengthAdjust="spacing" textLength="102.3369" x="538.33" y="373.1063">Observable RMI</text></g><g class="entity" data-entity="GMN46" data-source-line="67" data-uid="ent0047" id="entity_GMN46"><path d="M674.02,245.0394 L674.02,270.1722 L787.9751,270.1722 L787.9751,255.0394 L777.9751,245.0394 L674.02,245.0394" fill="#FFFFFF" style="stroke:#000000;stroke-width:1;"/><path d="M777.9751,245.0394 L777.9751,255.0394 L787.9751,255.0394 L777.9751,245.0394" fill="#FFFFFF" style="stroke:#000000;stroke-width:1;"/><text fill="#000000" font-family="Verdana" font-size="13" lengthAdjust="spacing" textLength="92.9551" x="680.02" y="262.1063">Observer MVC</text></g><g class="entity" data-entity="GMN49" data-source-line="68" data-uid="ent0050" id="entity_GMN49"><path d="M1058.58,245.0394 L1058.58,270.1722 L1229.4291,270.1722 L1229.4291,255.0394 L1219.4291,245.0394 L1058.58,245.0394" fill="#FFFFFF" style="stroke:#000000;stroke-width:1;"/><path d="M1219.4291,245.0394 L1219.4291,255.0394 L1229.4291,255.0394 L1219.4291,245.0394" fill="#FFFFFF" style="stroke:#000000;stroke-width:1;"/><text fill="#000000" font-family="Verdana" font-size="13" lengthAdjust="spacing" textLength="149.8491" x="1064.58" y="262.1063">Ejecutables principales</text></g><!--link ModeloJuego to Tablero--><g class="link" data-entity-1="ModeloJuego" data-entity-2="Tablero" data-source-line="47" data-uid="lnk28" id="link_ModeloJuego_Tablero"><path codeLine="47" d="M814.99,525.9894 C786.49,543.3994 746.45,567.8494 717.96,585.2594" fill="none" id="ModeloJuego-Tablero" style="stroke:#000000;stroke-width:1;"/></g><!--link ModeloJuego to BolsaFichas--><g class="link" data-entity-1="ModeloJuego" data-entity-2="BolsaFichas" data-source-line="48" data-uid="lnk29" id="link_ModeloJuego_BolsaFichas"><path codeLine="48" d="M842.54,525.7394 C836.4,543.1294 827.74,567.6694 821.57,585.1494" fill="none" id="ModeloJuego-BolsaFichas" style="stroke:#000000;stroke-width:1;"/></g><!--link ModeloJuego to Jugador--><g class="link" data-entity-1="ModeloJuego" data-entity-2="Jugador" data-source-line="49" data-uid="lnk30" id="link_ModeloJuego_Jugador"><path codeLine="49" d="M895.07,525.9894 C933.12,544.0394 987.14,569.6694 1023.99,587.1494" fill="none" id="ModeloJuego-Jugador" style="stroke:#000000;stroke-width:1;"/></g><!--link ModeloJuego to Ranking--><g class="link" data-entity-1="ModeloJuego" data-entity-2="Ranking" data-source-line="50" data-uid="lnk31" id="link_ModeloJuego_Ranking"><path codeLine="50" d="M870.1,525.7394 C886.64,543.1294 909.97,567.6694 926.59,585.1494" fill="none" id="ModeloJuego-Ranking" style="stroke:#000000;stroke-width:1;"/></g><!--link Tablero to Casillero--><g class="link" data-entity-1="Tablero" data-entity-2="Casillero" data-source-line="51" data-uid="lnk32" id="link_Tablero_Casillero"><path codeLine="51" d="M683.83,629.7394 C684.51,647.1294 685.47,671.6694 686.16,689.1494" fill="none" id="Tablero-Casillero" style="stroke:#000000;stroke-width:1;"/></g><!--link Jugador to Letra--><g class="link" data-entity-1="Jugador" data-entity-2="Letra" data-source-line="52" data-uid="lnk33" id="link_Jugador_Letra"><path codeLine="52" d="M1077.02,629.7394 C1086.91,647.1294 1100.86,671.6694 1110.8,689.1494" fill="none" id="Jugador-Letra" style="stroke:#000000;stroke-width:1;"/></g><!--link Palabra to Letra--><g class="link" data-entity-1="Palabra" data-entity-2="Letra" data-source-line="53" data-uid="lnk34" id="link_Palabra_Letra"><path codeLine="53" d="M1168.98,629.7394 C1159.09,647.1294 1145.14,671.6694 1135.2,689.1494" fill="none" id="Palabra-Letra" style="stroke:#000000;stroke-width:1;"/></g><!--link VistaGrafica to VentanaTablero--><g class="link" data-entity-1="VistaGrafica" data-entity-2="VentanaTablero" data-source-line="55" data-uid="lnk35" id="link_VistaGrafica_VentanaTablero"><path codeLine="55" d="M440.07,279.8894 C437.43,299.0894 433.56,327.1994 430.92,346.3894" fill="none" id="VistaGrafica-VentanaTablero" style="stroke:#000000;stroke-width:1;"/></g><!--link VistaGrafica to Controlador--><g class="link" data-entity-1="VistaGrafica" data-entity-2="Controlador" data-source-line="56" data-uid="lnk36" id="link_VistaGrafica_Controlador"><path codeLine="56" d="M499.7,264.9794 C542.8,269.6194 603.57,275.7594 657,279.6094 C666.6,280.2994 822.56,281.5194 830,287.6094 C833.4338,290.4206 836.3292,293.7241 838.7664,297.3593 C839.985,299.1769 841.089,301.0774 842.0885,303.0409 C842.1509,303.1636 842.213,325.5834 842.2747,325.7066" fill="none" id="VistaGrafica-Controlador" style="stroke:#000000;stroke-width:1;"/></g><!--link Controlador to ModeloJuego--><g class="link" data-entity-1="Controlador" data-entity-2="ModeloJuego" data-source-line="57" data-uid="lnk37" id="link_Controlador_ModeloJuego"><path codeLine="57" d="M850,414.9658 C850,415.6897 850,416.4173 850,417.1483 C850,418.6103 850,420.0856 850,421.5711 C850,424.542 850,427.5537 850,430.5808 C850,436.6349 850,442.7505 850,448.7252 C850,460.6744 850,472.0594 850,481.2594" fill="none" id="Controlador-ModeloJuego" style="stroke:#000000;stroke-width:1;"/></g><!--link VentanaTablero to ModeloTablero--><g class="link" data-entity-1="VentanaTablero" data-entity-2="ModeloTablero" data-source-line="59" data-uid="lnk38" id="link_VentanaTablero_ModeloTablero"><path codeLine="59" d="M379.86,391.0894 C353.03,403.7394 319.4,420.7394 291,438.6094 C270.67,451.3994 249.24,468.0194 233.25,481.1094" fill="none" id="VentanaTablero-ModeloTablero" style="stroke:#000000;stroke-width:1;"/></g><!--link VentanaTablero to JTableAtril--><g class="link" data-entity-1="VentanaTablero" data-entity-2="JTableAtril" data-source-line="60" data-uid="lnk39" id="link_VentanaTablero_JTableAtril"><path codeLine="60" d="M439.57,390.9794 C453,415.7994 475.04,456.4994 488.46,481.2894" fill="none" id="VentanaTablero-JTableAtril" style="stroke:#000000;stroke-width:1;"/></g><!--link AppServidor to ModeloJuego--><g class="link" data-entity-1="AppServidor" data-entity-2="ModeloJuego" data-source-line="62" data-uid="lnk40" id="link_AppServidor_ModeloJuego"><path codeLine="62" d="M909.33,144.9094 C902.95,194.9494 885.84,323.8394 866,430.6094 C862.82,447.7294 859.8695,461.1377 856.5195,475.4277" fill="none" id="AppServidor-to-ModeloJuego" style="stroke:#000000;stroke-width:1;stroke-dasharray:7,7;"/><polygon fill="#000000" points="855.15,481.2694,861.0986,473.4199,856.2912,476.4014,853.3098,471.594,855.15,481.2694" style="stroke:#000000;stroke-width:1;"/></g><!--link AppClienteVistaGrafica to VistaGrafica--><g class="link" data-entity-1="AppClienteVistaGrafica" data-entity-2="VistaGrafica" data-source-line="63" data-uid="lnk41" id="link_AppClienteVistaGrafica_VistaGrafica"><path codeLine="63" d="M679.69,144.9794 C627.07,169.7994 546.1969,207.9403 493.6269,232.7303" fill="none" id="AppClienteVistaGrafica-to-VistaGrafica" style="stroke:#000000;stroke-width:1;stroke-dasharray:7,7;"/><polygon fill="#000000" points="488.2,235.2894,498.0464,235.0686,492.7224,233.1568,494.6342,227.8328,488.2,235.2894" style="stroke:#000000;stroke-width:1;"/></g><!--link AppClienteVistaGrafica to Controlador--><g class="link" data-entity-1="AppClienteVistaGrafica" data-entity-2="Controlador" data-source-line="64" data-uid="lnk42" id="link_AppClienteVistaGrafica_Controlador"><path codeLine="64" d="M758.07,144.9294 C774.42,157.0694 793.15,173.6294 805,192.6094 C815.4675,209.3719 823.5081,228.4825 829.6825,247.7703 C832.7697,257.4142 835.3903,267.1024 837.6145,276.5636 C838.7265,281.2941 839.7395,285.9679 840.6621,290.551 C841.1234,292.8426 841.5621,295.1115 841.9793,297.3534 C842.1879,298.4744 842.3911,299.5887 842.5891,300.6957 C842.6881,301.2492 842.7858,301.8009 842.8822,302.3507 C842.9304,302.6256 841.9521,319.2853 841.9996,319.5592" fill="none" id="AppClienteVistaGrafica-to-Controlador" style="stroke:#000000;stroke-width:1;stroke-dasharray:7,7;"/><polygon fill="#000000" points="843.0258,325.4708,845.4276,315.9193,842.1707,320.5445,837.5455,317.2875,843.0258,325.4708" style="stroke:#000000;stroke-width:1;"/></g><!--link GMN43 to ModeloJuego--><g class="link" data-entity-1="GMN43" data-entity-2="ModeloJuego" data-source-line="66" data-uid="lnk45" id="link_GMN43_ModeloJuego"><path d="M610.49,381.4494 C628.89,394.3894 659.78,415.3094 688,430.6094 C723.04,449.6094 764.08,467.8094 796.09,481.1594" fill="none" id="GMN43-ModeloJuego" style="stroke:#000000;stroke-width:1;stroke-dasharray:7,7;"/></g><!--link GMN46 to Controlador--><g class="link" data-entity-1="GMN46" data-entity-2="Controlador" data-source-line="67" data-uid="lnk48" id="link_GMN46_Controlador"><path d="M780.03,270.6694 C802.99,276.7294 826.17,283.6194 830,287.6094 C833.075,290.8094 835.6986,294.4075 837.935,298.2604 C838.4941,299.2236 839.029,300.2028 839.5407,301.1956 C839.7966,301.692 840.0466,302.1919 840.291,302.6949 C840.4132,302.9464 840.534,325.4955 840.6533,325.7485" fill="none" id="GMN46-Controlador" style="stroke:#000000;stroke-width:1;stroke-dasharray:7,7;"/></g><!--link Aplicaciones to GMN49--><g class="link" data-entity-1="Aplicaciones" data-entity-2="GMN49" data-source-line="68" data-uid="lnk51" id="link_Aplicaciones_GMN49"><path d="M1144,168.6206 C1144,170.2029 1144,171.8035 1144,173.4181 C1144,199.2519 1144,228.6794 1144,244.6894" fill="none" id="Aplicaciones-GMN49" style="stroke:#000000;stroke-width:1;stroke-dasharray:7,7;"/></g><!--SRC=[VLJBRjim4BppAxQvzEHyG80KO2cda25RWkpulf8PXmaZ2YJTIz5_hoZPrkfLdQoPzN26kwjl_br-IQWrgeenhxoMiBd8iu5zQR4ecjSL28rEEiYigafLevQEiU_mJ1yGFEEmJQDraWuPLcFvYMS93rjpajeym1y6pLCseWuwh3sHe9lB6K_64kI0ZHLBQtuQxV15bU_e29f8Rv6yPwYn6202dT8ZhHohJrMT2HAfibIcGgiC-xkGzXZl3tmfx54vZyEiBVJBufiggQ6Zh3nME4ru9UxNFgMcljip5XsBT7V8quH7QRxaMvZAMwF3zG_T4s9E__KG9t74e_L-IVdLAwrEU99kRWIcyJkSUwjeyarRsA4pDdYMn8ABEDqj6-6rRZeGsZksmkjwB-rlDPoz1XLQDJSk5phO5ynPojV9pL2MnpiHPpoPc2Dx0AlLVTn7C9tv4NLRcH5ycv2hO83w1RZ-9u3TtbotfGSOJHpWqR2EQJeav7UWwAQpeKnFttKdFEqx8ts2nySV0-tvRhLbW_RzfuwcO9Nn4hofmRpHS-09qi8r9e8joBVne91clnLA2zkZwCeAuxtv2fMZQNo2zOSiBpweEgZxB-u_]--></g></svg>